# xmcd CD database file
#
# Track frame offsets:
#	150
#	27311
#	55087
#	81174
#	111654
#	140123
#	164702
#	186095
#	207366
#	228906
#
# Disc length: 3446 seconds
#
# Revision: 0
# Processed by: cddbd v1.5.2PL0 Copyright (c) Steve Scherf et al.
# Submitted via: CDex 1.51
#
DISCID=920d740a
DTITLE=Albin Brun Alpin Ensemble - Sphères Alpines
DYEAR=2010
DGENRE=Jazz
TTITLE0=Wind
TTITLE1=Poem Da Notg
TTITLE2=Gadasè!
TTITLE3=Frederik
TTITLE4=Spères Alpines
TTITLE5=Frogsi Obsisig
TTITLE6=Friedberg-Jodel
TTITLE7=Frakmont
TTITLE8=Balz
TTITLE9=Avalanche
EXTD=YEAR: 2010
EXTT0=
EXTT1=
EXTT2=
EXTT3=
EXTT4=
EXTT5=
EXTT6=
EXTT7=
EXTT8=
EXTT9=
PLAYORDER=
